<?xml version="1.0" encoding="utf-8"?>
<svg xmlns="http://www.w3.org/2000/svg">
<defs><linearGradient id="a" x1=".86" x2="99.14" y1="51.11" y2="51.11" gradientUnits="userSpaceOnUse"><stop offset="0" stop-color="#a2a2a2"/><stop offset=".09" stop-color="#e6e6e6"/><stop offset=".14" stop-color="#ddd"/><stop offset=".2" stop-color="#cecece"/><stop offset=".32" stop-color="#dfdfdf"/><stop offset=".48" stop-color="#cdcdcd"/><stop offset=".55" stop-color="#cbcbcb"/><stop offset=".57" stop-color="#c4c4c4"/><stop offset=".57" stop-color="#c3c3c3"/><stop offset=".66" stop-color="silver"/><stop offset=".84" stop-color="#e6e6e6"/><stop offset=".87" stop-color="#e0e0e0"/><stop offset=".9" stop-color="#d0d0d0"/><stop offset=".94" stop-color="#b6b6b6"/><stop offset=".99" stop-color="#919191"/><stop offset=".99" stop-color="#8d8d8d"/></linearGradient></defs>

<symbol id="spritesheet_chrome-info" viewBox="0 0 100 100"><path fill="url(#a)" d="M50 100.25c27.14 0 49.14-22 49.14-49.14S77.14 1.96 50 1.96.86 23.97.86 51.11s22 49.14 49.14 49.14Zm-7.68-33.79h4.61V54.17h-4.61c-2.55 0-4.61-2.05-4.61-4.61s2.05-4.61 4.61-4.61h9.21c2.55 0 4.61 2.05 4.61 4.61v16.89h1.54c2.55 0 4.61 2.05 4.61 4.61s-2.05 4.61-4.61 4.61H42.32c-2.55 0-4.61-2.05-4.61-4.61s2.05-4.61 4.61-4.61ZM50 26.53c3.39 0 6.14 2.75 6.14 6.14s-2.75 6.14-6.14 6.14-6.14-2.75-6.14-6.14 2.75-6.14 6.14-6.14Z"/>
</symbol>
<symbol id="spritesheet_chrome-phone" viewBox="0 0 100 100"><defs><linearGradient id="a" x1="2" x2="98" y1="50" y2="50" gradientUnits="userSpaceOnUse"><stop offset="0" stop-color="#a2a2a2"/><stop offset=".09" stop-color="#e6e6e6"/><stop offset=".14" stop-color="#ddd"/><stop offset=".2" stop-color="#cecece"/><stop offset=".32" stop-color="#dfdfdf"/><stop offset=".48" stop-color="#cdcdcd"/><stop offset=".55" stop-color="#cbcbcb"/><stop offset=".57" stop-color="#c4c4c4"/><stop offset=".57" stop-color="#c3c3c3"/><stop offset=".66" stop-color="silver"/><stop offset=".84" stop-color="#e6e6e6"/><stop offset=".87" stop-color="#e0e0e0"/><stop offset=".9" stop-color="#d0d0d0"/><stop offset=".94" stop-color="#b6b6b6"/><stop offset=".99" stop-color="#919191"/><stop offset=".99" stop-color="#8d8d8d"/></linearGradient></defs><path fill="url(#a)" d="M50 2C23.49 2 2 23.49 2 50s21.49 48 48 48 48-21.49 48-48S76.51 2 50 2ZM38.46 65.38h-1.92c-4.24 0-7.69-3.45-7.69-7.69v-5.77c0-4.24 3.45-7.69 7.69-7.69h1.92c2.13 0 3.85 1.72 3.85 3.85v13.46c0 2.13-1.72 3.85-3.85 3.85Zm42.3 1.93c0 5.84-4.74 10.58-10.59 10.58H56.91c-1 1.71-2.86 2.87-5 2.87h-3.85c-3.18 0-5.77-2.58-5.77-5.77s2.58-5.77 5.77-5.77h3.85c2.14 0 4 1.17 5 2.88h13.27a4.79 4.79 0 0 0 4.81-4.8V49.98c0-13.81-11.19-25-25-25s-25 11.19-25 25v4.81a2.88 2.88 0 0 1-5.76 0v-4.81C19.23 32.99 33 19.21 50 19.21s30.77 13.77 30.77 30.77V67.3Zm-23.08-5.78V48.07c0-2.13 1.72-3.85 3.85-3.85h1.92c4.24 0 7.69 3.45 7.69 7.69v5.77c0 4.24-3.45 7.69-7.69 7.69h-1.92c-2.13 0-3.85-1.72-3.85-3.85Z"/>
</symbol>
<symbol id="spritesheet_chrome-rocket" viewBox="0 0 100 100"><defs><linearGradient id="a" x1=".86" x2="99.14" y1="51.11" y2="51.11" gradientUnits="userSpaceOnUse"><stop offset="0" stop-color="#a2a2a2"/><stop offset=".09" stop-color="#e6e6e6"/><stop offset=".14" stop-color="#ddd"/><stop offset=".2" stop-color="#cecece"/><stop offset=".32" stop-color="#dfdfdf"/><stop offset=".48" stop-color="#cdcdcd"/><stop offset=".55" stop-color="#cbcbcb"/><stop offset=".57" stop-color="#c4c4c4"/><stop offset=".57" stop-color="#c3c3c3"/><stop offset=".66" stop-color="silver"/><stop offset=".84" stop-color="#e6e6e6"/><stop offset=".87" stop-color="#e0e0e0"/><stop offset=".9" stop-color="#d0d0d0"/><stop offset=".94" stop-color="#b6b6b6"/><stop offset=".99" stop-color="#919191"/><stop offset=".99" stop-color="#8d8d8d"/></linearGradient><linearGradient xlink:href="#a" id="b" x1="41.84" x2="58.26" y1="28.79" y2="28.79"/></defs><path fill="url(#a)" d="M50 1.96C22.86 1.96.86 23.96.86 51.11s22 49.14 49.14 49.14 49.14-22 49.14-49.14S77.14 1.96 50 1.96ZM23.3 88.17l-.82-3.25c-.58-2.29-.27-4.72.87-6.8l8.08-14.6c1.2 4.94 2.62 10.11 4.39 16.59L23.3 88.17Zm31.19 0h-8.96l-1.71-6.18h12.36l-1.69 6.18ZM41.91 78.9c-3.81-14.01-7.35-26.16-7.35-36.48 0-11.44 4.67-20.67 15.44-28.39 10.99 7.77 15.57 16.76 15.44 28.28-.11 10.09-3.6 22.17-7.25 36.59H41.9Zm35.61 6.01-.82 3.25-12.45-8.02c1.76-6.86 3.02-11.69 4.23-16.81l8.17 14.78c1.14 2.07 1.45 4.5.87 6.79Z"/><path fill="url(#b)" d="M50.04 21.89a26.336 26.336 0 0 0-8.2 12.43c2.6 1 5.38 1.45 8.16 1.34 2.82.13 5.64-.35 8.26-1.41-1.44-4.85-4.3-9.16-8.22-12.36Z"/>
</symbol></svg>